HIERARCHY
ROOT Hips
{
 OFFSET 0.000000 0.000000 0.000000
 CHANNELS 6 Xposition Yposition Zposition Yrotation Xrotation Zrotation
 JOINT Chest
 {
  OFFSET 0.000000 9.585900 0.002600
  CHANNELS 3 Yrotation Xrotation Zrotation
  JOINT Chest2
  {
   OFFSET 0.000000 9.601200 -0.005300
   CHANNELS 3 Yrotation Xrotation Zrotation
   JOINT Chest3
   {
    OFFSET 0.000000 9.561800 0.000000
    CHANNELS 3 Yrotation Xrotation Zrotation
    JOINT Chest4
    {
     OFFSET 0.000000 9.552100 0.000000
     CHANNELS 3 Yrotation Xrotation Zrotation
     JOINT Neck
     {
      OFFSET 0.000000 14.453000 0.000000
      CHANNELS 3 Yrotation Xrotation Zrotation
      JOINT Head
      {
       OFFSET 0.000000 8.936500 -0.011300
       CHANNELS 3 Yrotation Xrotation Zrotation
       End Site
       {
        OFFSET 0.000000 17.073600 -0.006000
       }
      }
     }
     JOINT RightCollar
     {
      OFFSET -2.921100 9.558500 0.000000
      CHANNELS 3 Yrotation Xrotation Zrotation
      JOINT RightShoulder
      {
       OFFSET -13.519700 0.000000 0.000000
       CHANNELS 3 Yrotation Xrotation Zrotation
       JOINT RightElbow
       {
        OFFSET 0.000000 -29.696600 0.000000
        CHANNELS 3 Yrotation Xrotation Zrotation
        JOINT RightWrist
        {
         OFFSET 0.000000 -24.004700 0.000000
         CHANNELS 3 Yrotation Xrotation Zrotation
         End Site
         {
          OFFSET 0.000000 -17.728500 0.000000
         }
        }
       }
      }
     }
     JOINT LeftCollar
     {
      OFFSET 2.921100 9.558500 0.000000
      CHANNELS 3 Yrotation Xrotation Zrotation
      JOINT LeftShoulder
      {
       OFFSET 13.519700 0.000000 0.000000
       CHANNELS 3 Yrotation Xrotation Zrotation
       JOINT LeftElbow
       {
        OFFSET 0.000000 -29.696600 0.000000
        CHANNELS 3 Yrotation Xrotation Zrotation
        JOINT LeftWrist
        {
         OFFSET 0.000000 -24.004700 0.000000
         CHANNELS 3 Yrotation Xrotation Zrotation
         End Site
         {
          OFFSET 0.000000 -17.728500 0.000000
         }
        }
       }
      }
     }
    }
   }
  }
 }
 JOINT RightHip
 {
  OFFSET -7.771700 -0.012900 -0.001300
  CHANNELS 3 Yrotation Xrotation Zrotation
  JOINT RightKnee
  {
   OFFSET 0.000000 -40.869800 0.001200
   CHANNELS 3 Yrotation Xrotation Zrotation
   JOINT RightAnkle
   {
    OFFSET 0.000000 -39.717900 0.002100
    CHANNELS 3 Yrotation Xrotation Zrotation
    JOINT RightToe
    {
     OFFSET 0.000000 -4.965400 11.033500
     CHANNELS 3 Yrotation Xrotation Zrotation
     End Site
     {
      OFFSET 0.000000 -1.423100 5.872300
     }
    }
   }
  }
 }
 JOINT LeftHip
 {
  OFFSET 7.771700 -0.012900 -0.001300
  CHANNELS 3 Yrotation Xrotation Zrotation
  JOINT LeftKnee
  {
   OFFSET 0.000000 -40.869800 0.001200
   CHANNELS 3 Yrotation Xrotation Zrotation
   JOINT LeftAnkle
   {
    OFFSET 0.000000 -39.717900 0.002100
    CHANNELS 3 Yrotation Xrotation Zrotation
    JOINT LeftToe
    {
     OFFSET 0.000000 -4.965400 11.033500
     CHANNELS 3 Yrotation Xrotation Zrotation
     End Site
     {
      OFFSET 0.000000 -1.423100 5.872300
     }
    }
   }
  }
 }
}
MOTION
Frames: 16
Frame Time: 0.008333
0.000000 85.388000 0.000000 0.000000 -5.767877 0.000000 0.000000 11.653817 0.000000 0.000000 -5.885947 0.000000 0.000000 -0.000000 0.000000 0.000000 -0.000000 0.000000 0.000000 12.528835 0.000000 0.000000 0.711642 0.000000 0.000000 -0.000000 0.000000 0.000000 0.000000 -90.000000 0.000000 -2.309062 0.000000 0.000000 2.309062 0.000000 0.000000 -0.000000 0.000000 0.000000 -0.000000 90.000000 0.000000 -2.309062 0.000000 0.000000 2.309062 0.000000 0.000000 8.520406 0.000000 0.000000 1.905762 0.000000 -0.000000 -4.658285 0.000000 0.000000 -0.000000 0.000000 0.000000 8.520406 0.000000 0.000000 1.905762 0.000000 -0.000000 -4.658285 0.000000 0.000000 -0.000000 0.000000
-73.876353 47.972474 19.712238 172.690331 -30.952480 -0.187439 -0.276928 15.744540 1.772022 -0.388889 9.035938 1.515329 -0.446842 11.286548 1.888723 -0.386705 9.028120 1.513912 0.346933 15.731293 -2.320512 1.481654 -6.453686 -4.434433 5.256608 3.781783 -4.740227 -2.339842 -14.584818 -9.048457 62.631621 -69.823507 -46.881859 13.487131 -0.795492 -44.554243 -3.215464 1.566164 -3.706265 7.579398 -19.231294 -1.948505 -87.396505 -50.771139 60.318983 -10.124109 8.234831 41.845676 29.712509 -48.803402 -34.602014 -115.120039 68.805789 -104.623581 4.753461 -4.927755 5.989233 0.156950 -1.076523 0.069704 -7.554537 -53.570025 15.456730 95.377881 82.057277 93.881860 -4.981227 -10.272848 -4.843778 0.365596 0.911224 0.162099
-73.874834 47.973540 19.711704 172.687173 -30.962121 -0.186191 -0.266256 15.732581 1.774375 -0.380790 9.009170 1.512180 -0.453786 11.301869 1.888858 -0.384329 9.020603 1.513263 0.373851 15.786635 -2.319156 1.505465 -6.357717 -4.431294 5.257790 3.786830 -4.740912 -2.341355 -14.558681 -9.045601 62.566250 -69.828781 -46.815676 13.475571 -0.799266 -44.547791 -3.229770 1.596494 -3.699790 7.572841 -19.244025 -1.948261 -87.372851 -50.762675 60.273703 -10.120130 8.243355 41.863768 29.697733 -48.796843 -34.589929 -115.114358 68.811934 -104.618749 4.754360 -4.929872 5.978990 0.162478 -1.077329 0.072512 -7.567024 -53.552709 15.475627 95.377534 82.060364 93.870075 -4.994248 -10.284947 -4.845049 0.371609 0.917741 0.165383
-73.872531 47.973807 19.712691 172.682641 -30.962490 -0.188448 -0.251964 15.709865 1.783665 -0.380905 9.005925 1.510524 -0.452618 11.295019 1.886144 -0.371335 8.980886 1.507681 0.367440 15.864200 -2.306218 1.551544 -6.252628 -4.440020 5.255006 3.793068 -4.741233 -2.325771 -14.531039 -9.058648 62.376689 -69.834699 -46.641386 13.452560 -0.801558 -44.545163 -3.257148 1.633271 -3.685579 7.547551 -19.249536 -1.959907 -87.301486 -50.735452 60.208909 -10.117171 8.246573 41.870159 29.687884 -48.801735 -34.579492 -115.107047 68.816721 -104.607811 4.745026 -4.926573 5.964290 0.174649 -1.078207 0.077388 -7.573861 -53.549904 15.489594 95.381045 82.060740 93.871430 -4.992716 -10.290377 -4.844517 0.366622 0.919755 0.163563
-73.870043 47.974249 19.713438 172.680607 -30.964777 -0.191903 -0.243191 15.693620 1.790684 -0.377932 8.997527 1.509288 -0.436081 11.248106 1.883147 -0.377880 8.997496 1.509352 0.388417 15.931452 -2.303874 1.572029 -6.154976 -4.437472 5.248357 3.801077 -4.743416 -2.334724 -14.489274 -9.046038 62.306478 -69.845843 -46.555169 13.411459 -0.804030 -44.537857 -3.281958 1.668537 -3.674227 7.527270 -19.258794 -1.967523 -87.244003 -50.713416 60.160443 -10.123664 8.242141 41.867679 29.680157 -48.804664 -34.569868 -115.106226 68.817268 -104.608783 4.754196 -4.924204 5.959601 0.172633 -1.081756 0.079042 -7.582536 -53.545330 15.500631 95.373407 82.060234 93.868748 -4.996580 -10.294542 -4.854621 0.373447 0.920445 0.166368
-73.867536 47.975600 19.712673 172.671630 -30.977234 -0.190505 -0.231942 15.692010 1.794419 -0.375191 8.991023 1.508411 -0.430229 11.230474 1.881319 -0.373995 8.988602 1.508093 0.412414 15.986657 -2.304447 1.576884 -6.083273 -4.429395 5.244388 3.807746 -4.744106 -2.336281 -14.469358 -9.046208 62.171047 -69.864555 -46.408552 13.422995 -0.803832 -44.547303 -3.300969 1.692532 -3.663416 7.520248 -19.248243 -1.971210 -87.222155 -50.700193 60.140922 -10.127723 8.239784 41.865591 29.677212 -48.796620 -34.555751 -115.105517 68.818507 -104.603942 4.738685 -4.916281 5.954997 0.166740 -1.085698 0.078901 -7.587752 -53.529209 15.508918 95.398727 82.050887 93.898510 -5.001288 -10.302786 -4.871356 0.378882 0.920283 0.171741
-73.866131 47.976492 19.712589 172.663783 -30.983423 -0.184162 -0.224534 15.680175 1.792948 -0.370778 8.981723 1.506980 -0.424727 11.218905 1.879646 -0.369572 8.979320 1.506657 0.426743 16.038832 -2.302614 1.560869 -6.061249 -4.417074 5.235389 3.824439 -4.738507 -2.312525 -14.480584 -9.069652 61.895873 -69.893246 -46.124105 13.454421 -0.802498 -44.571261 -3.319092 1.715877 -3.654920 7.510706 -19.236363 -1.973591 -87.200382 -50.689340 60.122284 -10.129712 8.242071 41.865071 29.679495 -48.796205 -34.554066 -115.115036 68.821200 -104.617052 4.744650 -4.908772 5.938463 0.165875 -1.094183 0.090313 -7.584898 -53.520641 15.510714 95.406161 82.050029 93.904337 -4.998305 -10.302903 -4.875715 0.377900 0.917583 0.171743
-73.865287 47.977221 19.712829 172.655778 -30.986275 -0.175731 -0.213755 15.659691 1.791381 -0.365196 8.969459 1.504931 -0.420349 11.213148 1.877981 -0.376549 8.995732 1.509696 0.448844 16.066086 -2.306501 1.620812 -5.887430 -4.426474 5.228294 3.837702 -4.733228 -2.287776 -14.500285 -9.094465 61.712595 -69.909663 -45.941940 13.418750 -0.806634 -44.553591 -3.326502 1.712465 -3.653319 7.467430 -19.264936 -1.978108 -87.096499 -50.664149 60.034871 -10.129653 8.242305 41.868317 29.679076 -48.798439 -34.550874 -115.111866 68.821790 -104.622509 4.746428 -4.906864 5.930517 0.163815 -1.095799 0.093896 -7.576534 -53.515082 15.508890 95.396513 82.053324 93.892298 -4.995353 -10.302154 -4.877023 0.377685 0.915582 0.171405
-73.865745 47.978333 19.712321 172.655583 -30.992674 -0.164501 -0.212548 15.655913 1.781590 -0.356031 8.947799 1.502555 -0.414916 11.199799 1.875970 -0.384274 9.015495 1.514837 0.462179 16.091529 -2.307853 1.656082 -5.757695 -4.426865 5.231773 3.826049 -4.730918 -2.289539 -14.476289 -9.100782 61.609949 -69.925956 -45.830858 13.433705 -0.805326 -44.565777 -3.335699 1.722014 -3.650904 7.453219 -19.282961 -1.983181 -87.045892 -50.652720 59.979224 -10.125242 8.245378 41.868066 29.683918 -48.788045 -34.559654 -115.116619 68.826605 -104.627383 4.738196 -4.909400 5.922220 0.173836 -1.093555 0.097425 -7.572085 -53.502741 15.495348 95.360336 82.051450 93.849398 -4.988534 -10.306018 -4.878323 0.373116 0.919367 0.169369
-73.866286 47.979955 19.711061 172.664075 -31.003975 -0.158335 -0.217875 15.656668 1.771708 -0.345192 8.923547 1.500424 -0.409138 11.186216 1.874504 -0.381672 9.006505 1.513678 0.449438 16.147103 -2.294453 1.689690 -5.646458 -4.428978 5.222962 3.843209 -4.718505 -2.291187 -14.450746 -9.105942 61.531134 -69.934902 -45.750650 13.416990 -0.807895 -44.557434 -3.356658 1.762011 -3.641485 7.440490 -19.300841 -1.989952 -86.996423 -50.638190 59.924825 -10.104762 8.249133 41.863770 29.679024 -48.772314 -34.565845 -115.123346 68.823155 -104.633985 4.738673 -4.911699 5.917946 0.170108 -1.091994 0.093357 -7.569017 -53.488906 15.479545 95.340473 82.051356 93.826676 -4.987746 -10.303635 -4.881163 0.372370 0.916427 0.169270
-73.866427 47.981257 19.710325 172.670179 -31.011982 -0.155428 -0.215860 15.641209 1.765109 -0.345272 8.928584 1.502229 -0.399170 11.166792 1.873385 -0.353674 8.939008 1.500503 0.437700 16.251831 -2.275645 1.698848 -5.530250 -4.416484 5.197863 3.903861 -4.691979 -2.285520 -14.434662 -9.118230 61.387235 -69.941541 -45.598703 13.406134 -0.804577 -44.569184 -3.392766 1.792895 -3.621814 7.419838 -19.262583 -1.988772 -86.934456 -50.627751 59.855346 -10.100149 8.246916 41.863457 29.671061 -48.757109 -34.568994 -115.118110 68.830246 -104.624693 4.737512 -4.916915 5.913762 0.162427 -1.086130 0.091897 -7.569892 -53.479032 15.471340 95.328357 82.050913 93.813118 -4.986710 -10.301238 -4.886618 0.371458 0.914042 0.171756
-73.865608 47.981925 19.710563 172.677673 -31.014119 -0.161296 -0.205289 15.614654 1.772798 -0.351311 8.937500 1.501386 -0.403207 11.173061 1.873835 -0.322966 8.874033 1.488324 0.469743 16.334187 -2.273327 1.672245 -5.411945 -4.385328 5.209265 3.893201 -4.681875 -2.268753 -14.395346 -9.150493 61.159147 -69.931717 -45.384586 13.381219 -0.803243 -44.578455 -3.426774 1.839829 -3.606827 7.405346 -19.270463 -1.995074 -86.868142 -50.621792 59.778061 -10.099842 8.246965 41.861999 29.655727 -48.756419 -34.560579 -115.113110 68.831567 -104.618889 4.730594 -4.917599 5.904666 0.170407 -1.084199 0.093440 -7.580328 -53.475686 15.474853 95.302816 82.046710 93.791472 -4.992406 -10.297759 -4.892973 0.374349 0.912508 0.172963
-73.864439 47.982602 19.710435 172.681033 -31.018992 -0.168202 -0.193785 15.590757 1.780285 -0.330012 8.889431 1.495474 -0.413264 11.194759 1.879673 -0.316261 8.865937 1.485131 0.476950 16.400678 -2.265574 1.680386 -5.288508 -4.371384 5.204300 3.903083 -4.669375 -2.259988 -14.376500 -9.165265 61.068715 -69.903847 -45.289584 13.410793 -0.820960 -44.601638 -3.455626 1.890898 -3.592081 7.395595 -19.302712 -2.008476 -86.803981 -50.605044 59.704967 -10.094991 8.244652 41.855823 29.643512 -48.751598 -34.544787 -115.105288 68.829158 -104.606542 4.718245 -4.924511 5.896334 0.190102 -1.075905 0.094127 -7.597040 -53.469281 15.486986 95.316100 82.047193 93.800903 -4.981282 -10.297729 -4.891020 0.363181 0.912691 0.167267
-73.863940 47.983501 19.709285 172.668300 -31.030077 -0.163044 -0.173891 15.576711 1.780916 -0.319231 8.875533 1.495162 -0.386810 11.144011 1.871958 -0.326033 8.891309 1.495824 0.483466 16.470373 -2.259296 1.687545 -5.159088 -4.359906 5.183111 3.937169 -4.653010 -2.235675 -14.389382 -9.188365 60.941896 -69.877178 -45.161150 13.404127 -0.828172 -44.622990 -3.481438 1.907746 -3.576985 7.379735 -19.304306 -2.021929 -86.721135 -50.606243 59.613096 -10.108336 8.247320 41.848385 29.676014 -48.732307 -34.561790 -115.141900 68.832757 -104.619415 4.727833 -4.918999 5.885943 0.185705 -1.083146 0.097193 -7.592497 -53.457755 15.489031 95.366105 82.045133 93.851284 -4.974749 -10.298740 -4.892611 0.357353 0.908387 0.163258
-73.863745 47.984070 19.708038 172.671142 -31.041060 -0.164538 -0.162998 15.559329 1.780607 -0.310227 8.863043 1.496211 -0.370416 11.116756 1.870752 -0.344813 8.925325 1.505150 0.497095 16.508811 -2.260017 1.703549 -5.018600 -4.357201 5.202460 3.895220 -4.656789 -2.238483 -14.345460 -9.198061 60.815080 -69.863075 -45.039510 13.407137 -0.835879 -44.634830 -3.478507 1.856015 -3.566928 7.347948 -19.270639 -2.031671 -86.641263 -50.590431 59.530979 -10.098111 8.247405 41.833758 29.666745 -48.717326 -34.557342 -115.143223 68.836336 -104.615005 4.734842 -4.926538 5.877029 0.180721 -1.078132 0.101923 -7.600083 -53.446830 15.490057 95.391414 82.043538 93.876037 -4.970857 -10.296372 -4.896633 0.351839 0.904901 0.162368
-73.864552 47.984257 19.706650 172.678951 -31.051553 -0.162660 -0.140347 15.510653 1.778188 -0.317879 8.880958 1.497773 -0.369178 11.115610 1.871149 -0.319837 8.883990 1.499464 0.464980 16.591236 -2.238073 1.738346 -4.866599 -4.366454 5.199095 3.892808 -4.640404 -2.267622 -14.272256 -9.192038 60.767632 -69.859351 -44.995500 13.415509 -0.831072 -44.623409 -3.515903 1.894133 -3.544152 7.323346 -19.278470 -2.046191 -86.562148 -50.568655 59.450519 -10.091055 8.246714 41.828800 29.641528 -48.708569 -34.546125 -115.128612 68.839563 -104.611052 4.727467 -4.933196 5.878597 0.165846 -1.071180 0.095536 -7.603626 -53.438156 15.480010 95.406032 82.049935 93.893594 -4.966233 -10.288931 -4.905413 0.354947 0.898215 0.164434
